<svg xmlns="http://www.w3.org/2000/svg" width="119.5" height="110.667" viewBox="0 0 119.5 110.667"><defs><style>.a{fill:#fc9305;}.b{fill:#fffdfd;}</style></defs><g transform="translate(-1197.504 -616.945)"><path class="a" d="M0,114.255c13.826,0,27.352.143,40.76.119h.1c9.022,0,17.924-.108,26.934-.358,6.751-.191,13.814-2.39,20.075-5.21,19.5-8.628,30.22-25.644,31.152-43.126q.323-2.294.43-4.613C120.857,30.584,93.815,3.71,62.09,3.71A57.357,57.357,0,0,0,13.264,91.288a7.033,7.033,0,0,1-.777,2.545C8.639,100.537,4.457,107.037,0,114.255Z" transform="translate(1197.504 613.235)"/><g transform="translate(1212.045 626.909)"><path class="b" d="M72.773,44.181H71.425a28.47,28.47,0,0,0-18.8-16.974L58.545,17.16a5.285,5.285,0,0,0,2.5.646,5.422,5.422,0,1,0-4.07-1.914L50.6,26.717a27.761,27.761,0,0,0-14.378.824l-5.026-7.487a5.588,5.588,0,1,0-1.825.87l4.917,7.324A28.461,28.461,0,0,0,18.575,44.181H17.227a8.272,8.272,0,0,0,0,16.544h.091a28.364,28.364,0,0,0,55.365,0h.09a8.272,8.272,0,0,0,0-16.544ZM61.041,9.091a3.358,3.358,0,1,1-3.357,3.357A3.36,3.36,0,0,1,61.041,9.091ZM28.025,19.115a3.358,3.358,0,1,1,3.358-3.357A3.361,3.361,0,0,1,28.025,19.115ZM45,28.135A26.464,26.464,0,0,1,69.265,44.181H20.735A26.464,26.464,0,0,1,45,28.135Zm0,52.774A26.394,26.394,0,0,1,19.373,60.725H70.627A26.393,26.393,0,0,1,45,80.909ZM72.773,58.725H17.227a6.272,6.272,0,0,1,0-12.544H72.773a6.272,6.272,0,0,1,0,12.544Z"/><path class="b" d="M56.343,71.528l-1.406-1.422a14.13,14.13,0,0,1-19.873,0l-1.406,1.422a16.129,16.129,0,0,0,22.685,0Z"/><rect class="b" width="6.847" height="2" transform="translate(28.96 51.934)"/><rect class="b" width="6.847" height="2" transform="translate(54.194 51.934)"/></g></g></svg>