<svg xmlns="http://www.w3.org/2000/svg" width="17.9" height="19.3" viewBox="0 0 17.9 19.3"><defs><style>.a{fill:none;stroke:#4c5264;stroke-linecap:round;stroke-miterlimit:10;}</style></defs><g transform="translate(-29.5 -753.5)"><path class="a" d="M9.6,3.3,1.8,11.1a4.468,4.468,0,0,0,0,6.4h0a4.468,4.468,0,0,0,6.4,0L16,9.7" transform="translate(29.55 753.45)"/><path class="a" d="M7.5,15.3l8.8-8.8a3.383,3.383,0,0,0,0-4.9h0a3.383,3.383,0,0,0-4.9,0L3.2,9.7" transform="translate(29.55 753.45)"/><path class="a" d="M2.9,15" transform="translate(29.55 753.45)"/><line class="a" x1="7.1" y2="7.1" transform="translate(33.45 758.15)"/><path class="a" d="M3.9,11.8a2.416,2.416,0,0,0,0,3.5,2.5,2.5,0,0,0,3.5,0" transform="translate(29.55 753.45)"/></g></svg>