<svg xmlns="http://www.w3.org/2000/svg" width="70.785" height="74.445" viewBox="0 0 70.785 74.445"><defs><style>.a{fill:#bcbaba;}.b{fill:#e27b04;}.c{fill:#fcfafa;}</style></defs><g transform="translate(-2345 -1674)"><path class="a" d="M55.932,71.5l-1.381-1.4a13.874,13.874,0,0,1-19.513,0l-1.381,1.4a15.837,15.837,0,0,0,22.274,0Z" transform="translate(2335.598 1665.768)"/><rect class="b" width="67.685" height="14.266" rx="6.799" transform="translate(2346.468 1711.404)"/><path class="a" d="M71.617,43.509H70.294A27.955,27.955,0,0,0,51.839,26.843l5.808-9.865a5.189,5.189,0,0,0,2.451.634,5.324,5.324,0,1,0-4-1.879L49.845,26.362a27.259,27.259,0,0,0-14.118.809l-4.935-7.351A5.486,5.486,0,1,0,29,20.673l4.828,7.191A27.946,27.946,0,0,0,18.4,43.509H17.077a8.122,8.122,0,1,0,0,16.244h.089a27.85,27.85,0,0,0,54.362,0h.088a8.122,8.122,0,0,0,0-16.244ZM60.1,9.055a3.3,3.3,0,1,1-3.3,3.3A3.3,3.3,0,0,1,60.1,9.055ZM27.68,18.9a3.3,3.3,0,1,1,3.3-3.3A3.3,3.3,0,0,1,27.68,18.9Zm16.668,8.857A25.985,25.985,0,0,1,68.173,43.509H20.522A25.985,25.985,0,0,1,44.347,27.754Zm0,51.818A25.916,25.916,0,0,1,19.184,59.754H69.51A25.915,25.915,0,0,1,44.347,79.572ZM71.617,57.79H17.077a6.158,6.158,0,1,1,0-12.317h54.54a6.158,6.158,0,1,1,0,12.317Z" transform="translate(2336.045 1666.909)"/><rect class="c" width="6.723" height="1.964" transform="translate(2364.643 1718.031)"/><rect class="c" width="6.723" height="1.964" transform="translate(2389.42 1718.031)"/></g></svg>