<svg xmlns="http://www.w3.org/2000/svg" width="25.809" height="25.799" viewBox="0 0 25.809 25.799"><defs><style>.a{fill:#cbc7c7;}</style></defs><g transform="translate(163.583 176.855)"><path class="a" d="M-163.582-166.94a9.908,9.908,0,0,1,9.95-9.915,9.917,9.917,0,0,1,9.905,9.962A9.925,9.925,0,0,1-153.68-157,9.916,9.916,0,0,1-163.582-166.94Zm18.438.02a8.528,8.528,0,0,0-8.49-8.528,8.544,8.544,0,0,0-8.54,8.509,8.529,8.529,0,0,0,8.522,8.521A8.51,8.51,0,0,0-145.145-166.92Z" transform="translate(0 0)"/><path class="a" d="M19.038,4.912a.876.876,0,0,1-.513.776.619.619,0,0,1-.758-.188q-2.8-2.808-5.611-5.613-.7-.7-1.4-1.4a.647.647,0,0,1,0-1.018.643.643,0,0,1,1,0Q15.26.976,18.763,4.488A2.113,2.113,0,0,1,19.038,4.912Z" transform="translate(-156.811 -156.808)"/><path class="a" d="M-55.485-133.943a4.221,4.221,0,0,1,4.044,4.129.7.7,0,0,1-.668.812c-.437.018-.709-.258-.736-.746a2.825,2.825,0,0,0-2.206-2.712,3.781,3.781,0,0,0-.613-.081.7.7,0,0,1-.731-.736.706.706,0,0,1,.811-.673Z" transform="translate(-96.549 -38.647)"/></g></svg>